<?xml version="1.0" encoding="UTF-8"?>
<svg id="uuid-8e9f7615-6fa8-409c-bda2-ede523831241" data-name="camera" xmlns="http://www.w3.org/2000/svg" viewBox="0 0 257.66 116.47">
  <g id="uuid-4fe92b3b-91e8-4e12-b6d8-31e40178efe2" data-name="camera">
    <path d="M199.06,22.2h-18.92c-1.27,0-2.31,1.03-2.31,2.31v11.42c0,1.27,1.03,2.31,2.31,2.31h18.92c1.27,0,2.31-1.03,2.31-2.31v-11.42c0-1.27-1.03-2.31-2.31-2.31ZM195.33,32.19h-11.44v-3.95h11.44v3.95Z" style="fill: #12668a;"/>
    <path d="M183.42,25.1h12.38c1.29,0,2.34,1.05,2.34,2.34v5.54c0,1.29-1.05,2.34-2.34,2.34h-12.38c-1.29,0-2.34-1.05-2.34-2.34v-5.54c0-1.29,1.05-2.34,2.34-2.34Z" style="fill: #fff;"/>
    <path d="M93.27,24.01h-18.79c-1.67,0-3.02,1.35-3.02,3.02s1.35,3.02,3.02,3.02h18.79c1.67,0,3.02-1.35,3.02-3.02s-1.35-3.02-3.02-3.02Z" style="fill: #12668a;"/>
    <path d="M134.32,36.12c-11.67,0-21.16,9.49-21.16,21.16s9.49,21.16,21.16,21.16,21.16-9.49,21.16-21.16-9.49-21.16-21.16-21.16ZM134.32,57c-3.38,0-6.12-2.74-6.12-6.12s2.74-6.12,6.12-6.12,6.12,2.74,6.12,6.12-2.74,6.12-6.12,6.12Z" style="fill: #12668a;"/>
    <path d="M93.27,24.01h-18.79c-1.67,0-3.02,1.35-3.02,3.02s1.35,3.02,3.02,3.02h18.79c1.67,0,3.02-1.35,3.02-3.02s-1.35-3.02-3.02-3.02Z" style="fill: #12668a;"/>
    <g>
      <path d="M122.23,110.43h-41.08c-1.67,0-3.02,1.35-3.02,3.02s1.35,3.02,3.02,3.02h41.08c1.67,0,3.02-1.35,3.02-3.02s-1.35-3.02-3.02-3.02Z" style="fill: #12668a;"/>
      <path d="M141.58,110.43h-6.65c-1.67,0-3.02,1.35-3.02,3.02s1.35,3.02,3.02,3.02h6.65c1.67,0,3.02-1.35,3.02-3.02s-1.35-3.02-3.02-3.02Z" style="fill: #12668a;"/>
      <path d="M178.45,110.43h-24.79c-1.67,0-3.02,1.35-3.02,3.02s1.35,3.02,3.02,3.02h24.79c1.67,0,3.02-1.35,3.02-3.02,0-1.67-1.35-3.02-3.02-3.02Z" style="fill: #12668a;"/>
    </g>
    <path d="M197.25,12.34h-40.54l-5.88-10.81c-.51-.95-1.51-1.53-2.59-1.53h-27.84c-1.08,0-2.08.59-2.6,1.53l-5.88,10.81h-15.3v-5.39c0-1.61-1.32-2.92-2.95-2.92h-17.1c-1.63,0-2.95,1.31-2.95,2.92v5.39h-2.25c-8.36,0-15.16,6.73-15.16,15.01v60.81c0,8.28,6.8,15.01,15.16,15.01h125.86c8.36,0,15.16-6.73,15.16-15.01V27.35c0-8.28-6.8-15.01-15.16-15.01ZM121.85,4.18h24.94l3.63,8.66h-32.2l3.63-8.66ZM78.13,7.11h14.18v5.31h-14.18v-5.31ZM60.27,26.48c0-5.24,4.27-9.51,9.51-9.51h129.09c5.24,0,9.51,4.27,9.51,9.51v34.67h-39.19c.14-1.27.22-2.56.22-3.87,0-19.34-15.74-35.08-35.08-35.08s-35.08,15.74-35.08,35.08c0,1.29.07,2.59.21,3.87h-39.19V26.48ZM167.14,57.28c0,1.48-.11,2.94-.3,4.37-.32,2.36-.88,4.65-1.67,6.83-4.59,12.59-16.68,21.61-30.84,21.61s-26.2-8.87-30.85-21.61c-.49-1.34-.89-2.73-1.21-4.15-.19-.89-.34-1.78-.46-2.69-.19-1.45-.3-2.91-.3-4.37,0-18.09,14.72-32.81,32.81-32.81s32.81,14.72,32.81,32.81ZM208.38,89.48c0,5.24-4.27,9.51-9.51,9.51H69.78c-5.24,0-9.51-4.27-9.51-9.51v-22.29h40.4c4.34,14.72,18.11,25.17,33.65,25.17s29.36-10.64,33.64-25.17h40.41v22.29Z" style="fill: #12668a;"/>
    <path d="M54.87,111.27h108.55c.61,0,1.21-.07,1.79-.19.58.13,1.17.19,1.79.19h62.03c4.61,0,8.35-3.74,8.35-8.35s-3.74-8.35-8.35-8.35h-7.16c-4.61,0-8.35-3.74-8.35-8.35s3.74-8.35,8.35-8.35h22.66c4.61,0,8.35-3.74,8.35-8.35s-3.74-8.35-8.35-8.35h-26.24c4.61,0,8.35-3.74,8.35-8.35s-3.74-8.35-8.35-8.35h-76.34c4.61,0,8.35-3.74,8.35-8.35s-3.74-8.35-8.35-8.35h-67.99c-4.61,0-8.35,3.74-8.35,8.35s3.74,8.35,8.35,8.35H26.24c-4.61,0-8.35,3.74-8.35,8.35s3.74,8.35,8.35,8.35h29.82c4.61,0,8.35,3.74,8.35,8.35s-3.74,8.35-8.35,8.35H8.35c-4.61,0-8.35,3.74-8.35,8.35s3.74,8.35,8.35,8.35h46.52c-4.61,0-8.35,3.74-8.35,8.35s3.74,8.35,8.35,8.35ZM249.31,111.27c4.61,0,8.35-3.74,8.35-8.35s-3.74-8.35-8.35-8.35-8.35,3.74-8.35,8.35,3.74,8.35,8.35,8.35Z" style="fill: rgba(18, 102, 138, .04); fill-rule: evenodd;"/>
  </g>
</svg>