<?xml version="1.0" encoding="UTF-8"?>
<svg id="uuid-f4707417-da37-43d0-b802-d5ec5a6f6228" data-name="Camada_1" xmlns="http://www.w3.org/2000/svg" viewBox="0 0 216 98.25">
  <path d="M46,91h91c.51,0,1.02-.06,1.5-.16.48.1.99.16,1.5.16h52c3.87,0,7-3.13,7-7s-3.13-7-7-7h-6c-3.87,0-7-3.13-7-7s3.13-7,7-7h19c3.87,0,7-3.13,7-7s-3.13-7-7-7h-22c3.87,0,7-3.13,7-7s-3.13-7-7-7h-64c3.87,0,7-3.13,7-7s-3.13-7-7-7h-57c-3.87,0-7,3.13-7,7s3.13,7,7,7H22c-3.87,0-7,3.13-7,7s3.13,7,7,7h25c3.87,0,7,3.13,7,7s-3.13,7-7,7H7c-3.87,0-7,3.13-7,7s3.13,7,7,7h39c-3.87,0-7,3.13-7,7s3.13,7,7,7ZM209,91c3.87,0,7-3.13,7-7s-3.13-7-7-7-7,3.13-7,7,3.13,7,7,7Z" style="fill: rgba(18, 102, 138, .04); fill-rule: evenodd;"/>
  <path d="M75,97c-12.15,0-22-9.63-22-21.5s9.85-21.5,22-21.5c.52,0,1.03.02,1.54.05-.35-1.96-.54-3.99-.54-6.05,0-18.78,15.22-34,34-34,14.99,0,27.72,9.7,32.24,23.17,1.07-.11,2.16-.17,3.26-.17,16.85,0,30.5,13.43,30.5,30s-12.32,28.73-28,29.98v.02h-73ZM87,97h-6.96,6.96Z" style="fill: #fff; fill-rule: evenodd;"/>
  <path d="M87,97h-6.96M75,97c-12.15,0-22-9.63-22-21.5s9.85-21.5,22-21.5c.52,0,1.03.02,1.54.05-.35-1.96-.54-3.99-.54-6.05,0-18.78,15.22-34,34-34,14.99,0,27.72,9.7,32.24,23.17,1.07-.11,2.16-.17,3.26-.17,16.85,0,30.5,13.43,30.5,30s-12.32,28.73-28,29.98v.02h-73Z" style="fill: none; stroke: #12668a; stroke-linecap: round; stroke-width: 2.5px;"/>
  <path d="M99.61,21.34c0,32.22,29.02,58.78,66.39,62.36-4.68,5.76-11.91,9.66-20.15,10.28v.02h-67.1c-8.14,0-21.74-3.43-21.74-18.45s10.57-18.45,21.74-18.45c.47,0,.95.01,1.41.04-.32-1.69-.38-3.42-.49-5.19-.76-11.96,4.46-27.04,19.97-31.95-.01.45-.02.89-.02,1.34ZM110.12,71.76c-3.04,0-5.5,2.43-5.5,5.44s2.46,5.44,5.5,5.44,5.5-2.43,5.5-5.44-2.46-5.44-5.5-5.44Z" style="fill: rgba(18, 102, 138, .08); fill-rule: evenodd;"/>
  <path d="M110.5,83c3.04,0,5.5-2.46,5.5-5.5s-2.46-5.5-5.5-5.5-5.5,2.46-5.5,5.5,2.46,5.5,5.5,5.5Z" style="fill: none; stroke: #12668a; stroke-width: 2.5px;"/>
  <path d="M95,66l7-5.49-7-5.23" style="fill: none; stroke: #12668a; stroke-linecap: round; stroke-linejoin: round; stroke-width: 2.5px;"/>
  <path d="M126,66l-7-5.49,7-5.23" style="fill: none; stroke: #12668a; stroke-linecap: round; stroke-linejoin: round; stroke-width: 2.5px;"/>
  <path d="M120,24c6.51,1.72,11.65,6.81,13.44,13.29" style="fill: none; stroke: #12668a; stroke-linecap: round; stroke-width: 2.5px;"/>
  <path d="M141,7c1.66,0,3-1.34,3-3s-1.34-3-3-3-3,1.34-3,3,1.34,3,3,3Z" style="fill: none; stroke: #12668a; stroke-width: 2px;"/>
  <path d="M172,23c1.66,0,3-1.34,3-3s-1.34-3-3-3-3,1.34-3,3,1.34,3,3,3Z" style="fill: #12668a;"/>
  <path d="M148.76,14.76l8.36,8.36M157.24,14.76l-8.36,8.36,8.36-8.36Z" style="fill: none; stroke: #12668a; stroke-linecap: round; stroke-linejoin: round; stroke-width: 2.5px;"/>
  <path d="M54.4,32.6l6,6M60.4,32.6l-6,6,6-6Z" style="fill: none; stroke: #12668a; stroke-linecap: round; stroke-linejoin: round; stroke-width: 2.5px;"/>
  <path d="M68,26c1.66,0,3-1.34,3-3s-1.34-3-3-3-3,1.34-3,3,1.34,3,3,3Z" style="fill: #12668a;"/>
</svg>