<?xml version="1.0" encoding="UTF-8"?>
<svg id="uuid-14105932-eb4e-402e-8032-51ec51c0c4f5" data-name="Camada_1" xmlns="http://www.w3.org/2000/svg" viewBox="0 0 216 98.25">
  <defs>
    <style>
      .uuid-233dd0ea-3750-429b-a639-8266a2312a00 {
        fill: rgba(18, 102, 138, .04);
      }

      .uuid-233dd0ea-3750-429b-a639-8266a2312a00, .uuid-53cf9483-c41f-44bd-a62f-1f6607a6d81c, .uuid-1fbac8c4-e8d6-4fcf-9f8f-3beb94a1bf30 {
        fill-rule: evenodd;
      }

      .uuid-53cf9483-c41f-44bd-a62f-1f6607a6d81c {
        fill: #fff;
      }

      .uuid-eeb28f88-72aa-4842-8103-d65ae24eba92 {
        fill: #12668a;
      }

      .uuid-b00e29cc-7e61-4c64-a471-8033640a0e4c, .uuid-04636099-194b-48fe-972d-274c14dd3600, .uuid-bae75bbd-2593-4e22-8ece-121816d817a7, .uuid-beae2b45-51d7-4088-a4c6-34960dbbe49b {
        fill: none;
        stroke: #12668a;
      }

      .uuid-b00e29cc-7e61-4c64-a471-8033640a0e4c, .uuid-bae75bbd-2593-4e22-8ece-121816d817a7, .uuid-beae2b45-51d7-4088-a4c6-34960dbbe49b {
        stroke-width: 2.5px;
      }

      .uuid-1fbac8c4-e8d6-4fcf-9f8f-3beb94a1bf30 {
        fill: rgba(18, 102, 138, .08);
      }

      .uuid-04636099-194b-48fe-972d-274c14dd3600 {
        stroke-width: 2px;
      }

      .uuid-bae75bbd-2593-4e22-8ece-121816d817a7 {
        stroke-linejoin: round;
      }

      .uuid-bae75bbd-2593-4e22-8ece-121816d817a7, .uuid-beae2b45-51d7-4088-a4c6-34960dbbe49b {
        stroke-linecap: round;
      }
    </style>
  </defs>
  <path class="uuid-233dd0ea-3750-429b-a639-8266a2312a00" d="M46,91h91c.51,0,1.02-.06,1.5-.16.48.1.99.16,1.5.16h52c3.87,0,7-3.13,7-7s-3.13-7-7-7h-6c-3.87,0-7-3.13-7-7s3.13-7,7-7h19c3.87,0,7-3.13,7-7s-3.13-7-7-7h-22c3.87,0,7-3.13,7-7s-3.13-7-7-7h-64c3.87,0,7-3.13,7-7s-3.13-7-7-7h-57c-3.87,0-7,3.13-7,7s3.13,7,7,7H22c-3.87,0-7,3.13-7,7s3.13,7,7,7h25c3.87,0,7,3.13,7,7s-3.13,7-7,7H7c-3.87,0-7,3.13-7,7s3.13,7,7,7h39c-3.87,0-7,3.13-7,7s3.13,7,7,7ZM209,91c3.87,0,7-3.13,7-7s-3.13-7-7-7-7,3.13-7,7,3.13,7,7,7Z"/>
  <path class="uuid-53cf9483-c41f-44bd-a62f-1f6607a6d81c" d="M75,97c-12.15,0-22-9.63-22-21.5s9.85-21.5,22-21.5c.52,0,1.03.02,1.54.05-.35-1.96-.54-3.99-.54-6.05,0-18.78,15.22-34,34-34,14.99,0,27.72,9.7,32.24,23.17,1.07-.11,2.16-.17,3.26-.17,16.85,0,30.5,13.43,30.5,30s-12.32,28.73-28,29.98v.02h-73ZM87,97h-6.96,6.96Z"/>
  <path class="uuid-beae2b45-51d7-4088-a4c6-34960dbbe49b" d="M87,97h-6.96M75,97c-12.15,0-22-9.63-22-21.5s9.85-21.5,22-21.5c.52,0,1.03.02,1.54.05-.35-1.96-.54-3.99-.54-6.05,0-18.78,15.22-34,34-34,14.99,0,27.72,9.7,32.24,23.17,1.07-.11,2.16-.17,3.26-.17,16.85,0,30.5,13.43,30.5,30s-12.32,28.73-28,29.98v.02h-73Z"/>
  <path class="uuid-1fbac8c4-e8d6-4fcf-9f8f-3beb94a1bf30" d="M99.61,21.34c0,32.22,29.02,58.78,66.39,62.36-4.68,5.76-11.91,9.66-20.15,10.28v.02h-67.1c-8.14,0-21.74-3.43-21.74-18.45s10.57-18.45,21.74-18.45c.47,0,.95.01,1.41.04-.32-1.69-.38-3.42-.49-5.19-.76-11.96,4.46-27.04,19.97-31.95-.01.45-.02.89-.02,1.34ZM110.12,71.76c-3.04,0-5.5,2.43-5.5,5.44s2.46,5.44,5.5,5.44,5.5-2.43,5.5-5.44-2.46-5.44-5.5-5.44Z"/>
  <path class="uuid-b00e29cc-7e61-4c64-a471-8033640a0e4c" d="M110.5,83c3.04,0,5.5-2.46,5.5-5.5s-2.46-5.5-5.5-5.5-5.5,2.46-5.5,5.5,2.46,5.5,5.5,5.5Z"/>
  <path class="uuid-bae75bbd-2593-4e22-8ece-121816d817a7" d="M95,66l7-5.49-7-5.23"/>
  <path class="uuid-bae75bbd-2593-4e22-8ece-121816d817a7" d="M126,66l-7-5.49,7-5.23"/>
  <path class="uuid-beae2b45-51d7-4088-a4c6-34960dbbe49b" d="M120,24c6.51,1.72,11.65,6.81,13.44,13.29"/>
  <path class="uuid-04636099-194b-48fe-972d-274c14dd3600" d="M141,7c1.66,0,3-1.34,3-3s-1.34-3-3-3-3,1.34-3,3,1.34,3,3,3Z"/>
  <path class="uuid-eeb28f88-72aa-4842-8103-d65ae24eba92" d="M172,23c1.66,0,3-1.34,3-3s-1.34-3-3-3-3,1.34-3,3,1.34,3,3,3Z"/>
  <path class="uuid-bae75bbd-2593-4e22-8ece-121816d817a7" d="M148.76,14.76l8.36,8.36M157.24,14.76l-8.36,8.36,8.36-8.36Z"/>
  <path class="uuid-bae75bbd-2593-4e22-8ece-121816d817a7" d="M54.4,32.6l6,6M60.4,32.6l-6,6,6-6Z"/>
  <path class="uuid-eeb28f88-72aa-4842-8103-d65ae24eba92" d="M68,26c1.66,0,3-1.34,3-3s-1.34-3-3-3-3,1.34-3,3,1.34,3,3,3Z"/>
</svg>