<?xml version="1.0" encoding="UTF-8"?>
<svg id="uuid-b887ca23-4edb-4317-b89f-936c63f2978a" data-name="Camada_1" xmlns="http://www.w3.org/2000/svg" viewBox="0 0 167 116.07">
  <path d="M160,22.25c3.87,0,7,3.13,7,7s-3.13,7-7,7h-40c3.87,0,7,3.13,7,7s-3.13,7-7,7h22c3.87,0,7,3.13,7,7s-3.13,7-7,7h-10.17c-4.87,0-8.83,3.13-8.83,7,0,2.58,2,4.91,6,7,3.87,0,7,3.13,7,7s-3.13,7-7,7H46c-3.87,0-7-3.13-7-7s3.13-7,7-7H7c-3.87,0-7-3.13-7-7s3.13-7,7-7h40c3.87,0,7-3.13,7-7s-3.13-7-7-7h-25c-3.87,0-7-3.13-7-7s3.13-7,7-7h40c-3.87,0-7-3.13-7-7s3.13-7,7-7h98ZM160,50.25c3.87,0,7,3.13,7,7s-3.13,7-7,7-7-3.13-7-7,3.13-7,7-7Z" style="fill: rgba(18, 102, 138, .04); fill-rule: evenodd;"/>
  <path d="M25.77,51.25h-.95c-6.06,0-10.98-4.91-10.98-10.96s4.92-10.96,10.98-10.96c.04,0,.08,0,.12,0,.98-8.49,7.92-15.07,16.35-15.07,8.88,0,16.12,7.31,16.46,16.47,5.37.35,10.1,5.57,10.1,11.02,0,4.47-3.31,9.51-7.24,9.51h-27.3" style="fill: #fff; fill-rule: evenodd;"/>
  <path d="M25.77,51.25h-.95c-6.06,0-10.98-4.91-10.98-10.96s4.92-10.96,10.98-10.96c.04,0,.08,0,.12,0,.98-8.49,7.92-15.07,16.35-15.07,8.88,0,16.12,7.31,16.46,16.47,5.37.35,10.1,5.57,10.1,11.02,0,4.47-3.31,9.51-7.24,9.51h-27.3" style="fill: none; stroke: #12668a; stroke-linecap: round; stroke-width: 2.5px;"/>
  <path d="M86.1,96.49c-.18.22-.37.42-.59.6-1.71,1.41-4.22,1.15-5.61-.6-10.28-12.92-17.96-24.11-23.07-33.58-5.12-9.5-7.58-17.14-7.58-23,0-19.03,15.13-34.41,33.75-34.41s33.75,15.38,33.75,34.41c0,5.86-2.46,13.51-7.58,23-5.11,9.47-12.79,20.66-23.07,33.58Z" style="fill: #fff; stroke: #12668a; stroke-width: 2.5px;"/>
  <path d="M57.02,55.5c.84,1.89,1.82,3.89,2.94,6.01,4.78,8.99,12.01,19.69,21.76,32.11.58.75,1.6.84,2.3.26.09-.08.17-.16.25-.26,9.75-12.42,16.98-23.12,21.76-32.11,4.82-9.06,6.96-16.07,6.96-21.19,0-12.66-7.3-23.51-17.73-28.35-1.4,4.8-3.31,9.38-5.67,13.68,5.65,2.56,9.59,8.31,9.59,15,0,9.07-7.25,16.42-16.19,16.42-6.03,0-11.28-3.34-14.07-8.29-3.71,2.62-7.7,4.88-11.91,6.73Z" style="fill: rgba(18, 102, 138, .08); fill-rule: evenodd;"/>
  <path d="M65.92,95.48c.68-.12,1.13-.77,1.01-1.45-.12-.68-.77-1.13-1.45-1.01l.44,2.46ZM58.51,94.65c-.66.2-1.04.9-.84,1.56.2.66.89,1.04,1.56.84l-.72-2.4ZM55.21,98.48c.63-.27.93-1.01.65-1.64s-1.01-.93-1.64-.65l.99,2.3ZM101.05,93.12c-.68-.13-1.33.32-1.46,1-.13.68.32,1.33,1,1.46l.46-2.46ZM65.48,93.02c-2.52.45-4.87,1-6.97,1.63l.72,2.4c2-.6,4.25-1.13,6.7-1.57l-.44-2.46ZM54.22,96.19c-2.18.94-4.01,2.02-5.3,3.25-1.3,1.23-2.16,2.7-2.16,4.37h2.5c0-.75.38-1.61,1.38-2.56,1-.95,2.54-1.9,4.57-2.77l-.99-2.3ZM46.75,103.82c0,2.1,1.35,3.87,3.25,5.29,1.93,1.43,4.64,2.67,7.87,3.68,6.49,2.04,15.37,3.28,25.12,3.28v-2.5c-9.57,0-18.19-1.22-24.37-3.17-3.1-.97-5.51-2.11-7.13-3.31-1.64-1.22-2.25-2.34-2.25-3.28h-2.5ZM83,116.07c9.76,0,18.64-1.24,25.12-3.28,3.24-1.02,5.94-2.25,7.87-3.68,1.9-1.42,3.26-3.19,3.26-5.29h-2.5c0,.94-.61,2.06-2.25,3.28-1.61,1.2-4.03,2.33-7.13,3.31-6.18,1.94-14.8,3.17-24.37,3.17v2.5ZM119.25,103.82c0-2.77-2.32-4.97-5.39-6.63-3.17-1.71-7.6-3.1-12.81-4.07l-.46,2.46c5.07.94,9.23,2.27,12.08,3.81,2.95,1.59,4.08,3.17,4.08,4.43h2.5Z" style="fill: #12668a;"/>
  <circle cx="83" cy="40.25" r="15.75" style="fill: none; stroke: #12668a; stroke-width: 2.5px;"/>
  <path d="M125.79,14.47c-.91-2.29-2.73-4.1-5.01-5.01l-1.78-.71,1.78-.71c2.29-.91,4.1-2.73,5.01-5.01l.71-1.78.71,1.78c.91,2.29,2.73,4.1,5.01,5.01l1.78.71-1.78.71c-2.29.91-4.1,2.73-5.01,5.01l-.71,1.78-.71-1.78Z" style="fill: none; stroke: #12668a; stroke-linejoin: round; stroke-width: 2.5px;"/>
  <path d="M105.69,85.25h-.69c-4.42,0-8-3.58-8-8s3.58-8,8-8h.09c.71-6.2,5.77-11,11.91-11,6.47,0,11.75,5.34,11.99,12.02,3.91.25,7.36,4.07,7.36,8.04,0,3.27-2.42,6.94-5.28,6.94h-19.89" style="fill: #fff; fill-rule: evenodd;"/>
  <path d="M105.69,85.25h-.69c-4.42,0-8-3.58-8-8s3.58-8,8-8h.09c.71-6.2,5.77-11,11.91-11,6.47,0,11.75,5.34,11.99,12.02,3.91.25,7.36,4.07,7.36,8.04,0,3.27-2.42,6.94-5.28,6.94h-19.89" style="fill: none; stroke: #12668a; stroke-linecap: round; stroke-width: 2.5px;"/>
</svg>