<?xml version="1.0" encoding="UTF-8"?>
<svg id="uuid-f66f346d-3eeb-4748-89c1-e86731487f26" data-name="Camada_1" xmlns="http://www.w3.org/2000/svg" viewBox="0 0 216 112.33">
  <path d="M46,93.73h91c.51,0,1.02-.06,1.5-.16.48.1.99.16,1.5.16h52c3.87,0,7-3.13,7-7s-3.13-7-7-7h-6c-3.87,0-7-3.13-7-7s3.13-7,7-7h19c3.87,0,7-3.13,7-7s-3.13-7-7-7h-22c3.87,0,7-3.13,7-7s-3.13-7-7-7h-64c3.87,0,7-3.13,7-7s-3.13-7-7-7h-57c-3.87,0-7,3.13-7,7s3.13,7,7,7H22c-3.87,0-7,3.13-7,7s3.13,7,7,7h25c3.87,0,7,3.13,7,7s-3.13,7-7,7H7c-3.87,0-7,3.13-7,7s3.13,7,7,7h39c-3.87,0-7,3.13-7,7s3.13,7,7,7ZM209,93.73c3.87,0,7-3.13,7-7s-3.13-7-7-7-7,3.13-7,7,3.13,7,7,7Z" style="fill: rgba(18, 102, 138, .04); fill-rule: evenodd;"/>
  <path d="M69.28,98.86l-4.07.57c-2.19.31-4.21-1.22-4.52-3.4l-11.13-79.22c-.31-2.19,1.22-4.21,3.4-4.52L131.19,1.29c2.19-.31,4.21,1.22,4.52,3.4,0,0,.71,5.07.96,6.81" style="fill: #fff; fill-rule: evenodd;"/>
  <path d="M71.81,94.44l-3.7.53c-1.99.28-3.82-1.1-4.1-3.09l-10-71.93c-.28-1.99,1.11-3.83,3.1-4.11l71.04-10.1c1.99-.28,3.82,1.1,4.1,3.08l.86,6.18c.05.33,3.12,22.53,9.21,66.6.31,2.21-1.22,4.26-3.41,4.57-.02,0-.05,0-.07,0l-67.03,8.25Z" style="fill: rgba(18, 102, 138, .08); fill-rule: evenodd;"/>
  <path d="M69.28,98.86l-4.07.57c-2.19.31-4.21-1.22-4.52-3.4l-11.13-79.22c-.31-2.19,1.22-4.21,3.4-4.52L131.19,1.29c2.19-.31,4.21,1.22,4.52,3.4,0,0,.71,5.07.96,6.81" style="fill: none; stroke: #12668a; stroke-linecap: round; stroke-width: 2.5px;"/>
  <path d="M137.5,16.11l.5,3.12" style="fill: none; stroke: #12668a; stroke-linecap: round; stroke-width: 2.5px;"/>
  <path d="M85.84,17.77l78.57,8.26c1.51.16,2.61,1.51,2.45,3.02l-8.36,79.56c-.16,1.51-1.51,2.61-3.02,2.45l-78.57-8.26c-1.51-.16-2.61-1.51-2.45-3.02l8.36-79.56c.16-1.51,1.51-2.61,3.02-2.45Z" style="fill: #fff; stroke: #12668a; stroke-width: 2.5px;"/>
  <path d="M89.69,28.99c.17-1.65,1.65-2.84,3.3-2.67l62.66,6.59c1.65.17,2.84,1.65,2.67,3.3l-5.54,52.71c-.17,1.65-1.65,2.84-3.3,2.67l-62.65-6.59c-1.65-.17-2.84-1.65-2.67-3.3l5.54-52.71Z" style="fill: #fff; fill-rule: evenodd;"/>
  <path d="M92.74,69.61l9.8-6.61c1.63-1.1,3.83-.85,5.17.59l7.17,7.72c.36.39.95.43,1.36.1l15.34-12.43c1.85-1.5,4.59-1.06,5.88.94l9.98,15.44,1.43,2.39-.69,8.12c-.05.56-.55.97-1.11.91l-56.96-6.33c-.54-.06-.93-.54-.88-1.08l.75-8.2,2.75-1.56Z" style="fill: rgba(18, 102, 138, .08); fill-rule: evenodd;"/>
  <path d="M92.86,27.56l62.65,6.59c.96.1,1.66.96,1.56,1.92l-5.54,52.71c-.1.96-.96,1.66-1.92,1.56l-62.65-6.59c-.96-.1-1.66-.96-1.56-1.92l5.54-52.71c.1-.96.96-1.66,1.92-1.56Z" style="fill: none; stroke: #12668a; stroke-width: 2.5px;"/>
  <circle cx="105.03" cy="45.68" r="6" style="fill: rgba(18, 102, 138, .04); stroke: #12668a; stroke-miterlimit: 4; stroke-width: 2.5px;"/>
  <path d="M90.73,71.16c3.94-2.72,11.81-8.16,11.81-8.16,1.63-1.1,3.83-.85,5.17.59l7.17,7.72c.36.39.95.43,1.36.1l15.34-12.43c1.72-1.39,4.24-1.13,5.63.59.09.11.17.23.25.35,0,0,8.97,14.23,11.06,17.56" style="fill: none; stroke: #12668a; stroke-linecap: round; stroke-width: 2.5px;"/>
</svg>