<?xml version="1.0" encoding="UTF-8"?>
<svg id="uuid-80232e4d-0e62-444a-93b3-c9adbca41931" data-name="Camada_1" xmlns="http://www.w3.org/2000/svg" width="216" height="85.5" viewBox="0 0 216 85.5">
  <path d="M46,78.25h91c.51,0,1.02-.06,1.5-.16.48.1.99.16,1.5.16h52c3.87,0,7-3.13,7-7s-3.13-7-7-7h-6c-3.87,0-7-3.13-7-7s3.13-7,7-7h19c3.87,0,7-3.13,7-7s-3.13-7-7-7h-22c3.87,0,7-3.13,7-7s-3.13-7-7-7h-64c3.87,0,7-3.13,7-7s-3.13-7-7-7h-57c-3.87,0-7,3.13-7,7s3.13,7,7,7H22c-3.87,0-7,3.13-7,7s3.13,7,7,7h25c3.87,0,7,3.13,7,7s-3.13,7-7,7H7c-3.87,0-7,3.13-7,7s3.13,7,7,7h39c-3.87,0-7,3.13-7,7s3.13,7,7,7ZM209,78.25c3.87,0,7-3.13,7-7s-3.13-7-7-7-7,3.13-7,7,3.13,7,7,7Z" style="fill: rgba(18, 102, 138, .04); fill-rule: evenodd;"/>
  <path d="M75,84.25c-12.15,0-22-9.63-22-21.5s9.85-21.5,22-21.5c.52,0,1.03.02,1.54.05-.35-1.96-.54-3.99-.54-6.05,0-18.78,15.22-34,34-34,14.99,0,27.72,9.7,32.24,23.17,1.07-.11,2.16-.17,3.26-.17,16.85,0,30.5,13.43,30.5,30s-12.32,28.73-28,29.98v.02h-56.49M87,84.25h-6.96,6.96Z" style="fill: #fff; fill-rule: evenodd;"/>
  <path d="M75,85.5c.69,0,1.25-.56,1.25-1.25s-.56-1.25-1.25-1.25v2.5ZM76.54,41.3l-.08,1.25,1.6.11-.28-1.58-1.23.22ZM142.24,24.42l-1.18.4.32.95,1-.1-.13-1.24ZM148,84.23l-.1-1.25-1.15.09v1.15h1.25ZM148,84.25v1.25h1.25v-1.25h-1.25ZM91.51,83c-.69,0-1.25.56-1.25,1.25s.56,1.25,1.25,1.25v-2.5ZM75,83c-11.49,0-20.75-9.09-20.75-20.25h-2.5c0,12.59,10.44,22.75,23.25,22.75v-2.5ZM54.25,62.75c0-11.16,9.26-20.25,20.75-20.25v-2.5c-12.81,0-23.25,10.16-23.25,22.75h2.5ZM75,42.5c.49,0,.97.02,1.45.05l.17-2.49c-.54-.04-1.08-.05-1.62-.05v2.5ZM77.77,41.08c-.34-1.89-.52-3.84-.52-5.83h-2.5c0,2.14.19,4.24.56,6.27l2.46-.44ZM77.25,35.25c0-18.09,14.66-32.75,32.75-32.75V0c-19.47,0-35.25,15.78-35.25,35.25h2.5ZM110,2.5c14.44,0,26.7,9.34,31.05,22.32l2.37-.8C138.74,10.06,125.54,0,110,0v2.5ZM142.37,25.66c1.03-.11,2.07-.16,3.13-.16v-2.5c-1.15,0-2.28.06-3.39.18l.26,2.49ZM145.5,25.5c16.17,0,29.25,12.89,29.25,28.75h2.5c0-17.28-14.24-31.25-31.75-31.25v2.5ZM174.75,54.25c0,15.07-11.8,27.53-26.85,28.73l.2,2.49c16.31-1.3,29.15-14.81,29.15-31.22h-2.5ZM146.75,84.23v.02h2.5v-.02h-2.5ZM148,83h-56.49v2.5h56.49v-2.5ZM87,83h-6.96v2.5h6.96v-2.5ZM80.03,85.5h6.96v-2.5h-6.96v2.5Z" style="fill: #12668a;"/>
  <path d="M99.61,8.59c0,32.22,29.02,58.78,66.39,62.36-4.68,5.76-11.91,9.66-20.15,10.28v.02h-67.1c-8.14,0-21.74-3.43-21.74-18.45s10.57-18.45,21.74-18.45c.47,0,.95.01,1.41.04-.32-1.69-.38-3.42-.49-5.19-.76-11.96,4.46-27.04,19.97-31.95-.01.45-.02.89-.02,1.34Z" style="fill: rgba(18, 102, 138, .08); fill-rule: evenodd;"/>
  <path d="M120,13.25c6.51,1.72,11.65,6.81,13.44,13.29" style="fill: none; stroke: #12668a; stroke-linecap: round; stroke-width: 2.5px;"/>
  <path d="M91,45.75c0,3.59,3.13,6.5,7,6.5s7-2.91,7-6.5" style="fill: none; stroke: #12668a; stroke-linecap: round; stroke-width: 2.5px;"/>
  <path d="M120,45.75c0,3.59,3.13,6.5,7,6.5s7-2.91,7-6.5" style="fill: none; stroke: #12668a; stroke-linecap: round; stroke-width: 2.5px;"/>
  <path d="M105,64.25h14.5" style="fill: none; stroke: #12668a; stroke-linecap: round; stroke-width: 2.5px;"/>
  <path d="M52.16,4.54h-11.95v2.38h8.45l-9.15,11.09v2.24h12.87v-2.38h-9.37l9.15-11.24v-2.09ZM65.57,19.83h-8.69v1.73h6.14l-6.66,8.06v1.63h9.36v-1.73h-6.82l6.66-8.18v-1.52Z" style="fill: #12668a; fill-rule: evenodd;"/>
</svg>