<?xml version="1.0" encoding="UTF-8"?>
<svg id="uuid-c59175bc-044e-4b2c-b20a-f388edda7edc" data-name="Camada_1" xmlns="http://www.w3.org/2000/svg" viewBox="0 0 167 86.89">
  <defs>
    <style>
      .uuid-b5d5f54f-123e-4834-b2ab-e8507780f757 {
        stroke: #fff;
      }

      .uuid-b5d5f54f-123e-4834-b2ab-e8507780f757, .uuid-6dd20456-dfd3-4df8-b1d7-b75c7c6662ed, .uuid-bb199d35-baf6-407e-822d-00eff1865811, .uuid-2208df41-911a-4b66-a494-09905193e502, .uuid-80389edd-c8ce-4931-8f2c-010bb3121a84, .uuid-6627b568-2f6d-4aa2-b216-1dcf5c5cab35 {
        stroke-width: 2.5px;
      }

      .uuid-b5d5f54f-123e-4834-b2ab-e8507780f757, .uuid-6dd20456-dfd3-4df8-b1d7-b75c7c6662ed, .uuid-80389edd-c8ce-4931-8f2c-010bb3121a84, .uuid-6627b568-2f6d-4aa2-b216-1dcf5c5cab35 {
        fill: none;
      }

      .uuid-b5d5f54f-123e-4834-b2ab-e8507780f757, .uuid-80389edd-c8ce-4931-8f2c-010bb3121a84, .uuid-6627b568-2f6d-4aa2-b216-1dcf5c5cab35 {
        stroke-linecap: round;
      }

      .uuid-ffdcdffe-c766-4047-9fac-50ec767ef689, .uuid-d82d7550-64e2-48ba-b3b7-31cb2f830c15, .uuid-2208df41-911a-4b66-a494-09905193e502 {
        fill-rule: evenodd;
      }

      .uuid-ffdcdffe-c766-4047-9fac-50ec767ef689, .uuid-bb199d35-baf6-407e-822d-00eff1865811 {
        fill: rgba(18, 102, 138, .04);
      }

      .uuid-6dd20456-dfd3-4df8-b1d7-b75c7c6662ed, .uuid-bb199d35-baf6-407e-822d-00eff1865811, .uuid-2208df41-911a-4b66-a494-09905193e502, .uuid-80389edd-c8ce-4931-8f2c-010bb3121a84, .uuid-6627b568-2f6d-4aa2-b216-1dcf5c5cab35 {
        stroke: #12668a;
      }

      .uuid-d82d7550-64e2-48ba-b3b7-31cb2f830c15, .uuid-2208df41-911a-4b66-a494-09905193e502 {
        fill: rgba(18, 102, 138, .08);
      }

      .uuid-80389edd-c8ce-4931-8f2c-010bb3121a84 {
        stroke-linejoin: round;
      }
    </style>
  </defs>
  <path class="uuid-ffdcdffe-c766-4047-9fac-50ec767ef689" d="M160,.25c3.87,0,7,3.13,7,7s-3.13,7-7,7h-40c3.87,0,7,3.13,7,7s-3.13,7-7,7h22c3.87,0,7,3.13,7,7s-3.13,7-7,7h-10.17c-4.87,0-8.83,3.13-8.83,7,0,2.58,2,4.91,6,7,3.87,0,7,3.13,7,7s-3.13,7-7,7H46c-3.87,0-7-3.13-7-7s3.13-7,7-7H7c-3.87,0-7-3.13-7-7s3.13-7,7-7h40c3.87,0,7-3.13,7-7s-3.13-7-7-7h-25c-3.87,0-7-3.13-7-7s3.13-7,7-7h40c-3.87,0-7-3.13-7-7S58.13.25,62,.25h98ZM160,28.25c3.87,0,7,3.13,7,7s-3.13,7-7,7-7-3.13-7-7,3.13-7,7-7Z"/>
  <path class="uuid-bb199d35-baf6-407e-822d-00eff1865811" d="M73.5,68.25c18.5,0,33.5-15,33.5-33.5S92,1.25,73.5,1.25s-33.5,15-33.5,33.5,15,33.5,33.5,33.5Z"/>
  <path class="uuid-6627b568-2f6d-4aa2-b216-1dcf5c5cab35" d="M68.13,60.74c1.76.32,3.55.49,5.37.51,14.64,0,26.5-11.86,26.5-26.5s-11.86-26.5-26.5-26.5c-3.76,0-7.34.78-10.58,2.19-5.63,2.45-10.24,6.81-13.03,12.25-1.85,3.62-2.9,7.72-2.9,12.06,0,3.94.86,7.68,2.4,11.04,1.1,2.4,2.55,4.61,4.28,6.56"/>
  <path class="uuid-6627b568-2f6d-4aa2-b216-1dcf5c5cab35" d="M56.8,55.32c2.15,1.75,4.58,3.16,7.2,4.17"/>
  <path class="uuid-6dd20456-dfd3-4df8-b1d7-b75c7c6662ed" d="M101,61.25l6,6"/>
  <path class="uuid-2208df41-911a-4b66-a494-09905193e502" d="M106.03,66.28c-1.89,1.89-1.89,4.96,0,6.85l11.09,11.09c1.89,1.89,4.96,1.89,6.85,0,1.89-1.89,1.89-4.96,0-6.85l-11.09-11.09c-1.89-1.89-4.96-1.89-6.85,0Z"/>
  <path class="uuid-b5d5f54f-123e-4834-b2ab-e8507780f757" d="M111,68.25l11,11"/>
  <path class="uuid-d82d7550-64e2-48ba-b3b7-31cb2f830c15" d="M67,23.25c0,11.6,9.4,21,21,21,2.28,0,4.47-.36,6.53-1.03-3.35,8.32-11.5,14.19-21.03,14.19-12.51,0-22.66-10.15-22.66-22.66,0-11.34,8.33-20.74,19.21-22.4-1.93,3.18-3.04,6.91-3.04,10.9Z"/>
  <path class="uuid-6627b568-2f6d-4aa2-b216-1dcf5c5cab35" d="M74,16.25c-1.27,0-2.52.13-3.72.36M66.64,17.73c-6.84,2.87-11.64,9.64-11.64,17.52"/>
  <path class="uuid-80389edd-c8ce-4931-8f2c-010bb3121a84" d="M127.18,35.03h-8.18M133.5,27.25h-17.18,17.18ZM140.5,27.25h-2.22,2.22Z"/>
  <path class="uuid-80389edd-c8ce-4931-8f2c-010bb3121a84" d="M37.18,57.03h-8.18M32.5,48.25H15.32h17.18ZM9.5,48.25h-4.22,4.22Z"/>
</svg>