<svg id="Capa_1" enable-background="new 0 0 511.654 511.654" height="512" viewBox="0 0 511.654 511.654" width="512" xmlns="http://www.w3.org/2000/svg"><g><g><path d="m50.047 341.468c-4.142 0-7.5-3.357-7.5-7.5v-128.259c0-4.143 3.358-7.5 7.5-7.5s7.5 3.357 7.5 7.5v128.259c0 4.142-3.358 7.5-7.5 7.5z" fill="#678d98"/></g><g><path d="m50.047 213.209c-27.596 0-50.047-22.451-50.047-50.047 0-27.597 22.451-50.048 50.047-50.048 4.142 0 7.5 3.357 7.5 7.5s-3.358 7.5-7.5 7.5c-19.325 0-35.047 15.723-35.047 35.048s15.722 35.047 35.047 35.047 35.047-15.722 35.047-35.047c0-4.143 3.358-7.5 7.5-7.5s7.5 3.357 7.5 7.5c0 27.596-22.451 50.047-50.047 50.047z" fill="#678d98"/></g><g><path d="m96.906 462.913c-2.693 0-5.295-1.455-6.64-4.002l-53.55-102.772c-1.933-3.664-.53-8.2 3.133-10.134 3.664-1.93 8.2-.528 10.133 3.134l53.55 102.772c1.933 3.664.53 8.2-3.133 10.134-1.115.588-2.313.868-3.493.868z" fill="#678d98"/></g><g><path d="m461.606 339.555c-4.142 0-7.5-3.357-7.5-7.5v-126.346c0-4.143 3.358-7.5 7.5-7.5s7.5 3.357 7.5 7.5v126.346c0 4.142-3.357 7.5-7.5 7.5z" fill="#678d98"/></g><g><path d="m461.606 213.209c-27.596 0-50.047-22.451-50.047-50.047 0-4.143 3.358-7.5 7.5-7.5s7.5 3.357 7.5 7.5c0 19.325 15.722 35.047 35.047 35.047s35.047-15.722 35.047-35.047-15.722-35.048-35.047-35.048c-4.142 0-7.5-3.357-7.5-7.5s3.358-7.5 7.5-7.5c27.596 0 50.047 22.451 50.047 50.048.001 27.596-22.45 50.047-50.047 50.047z" fill="#678d98"/></g><g><path d="m414.747 462.913c-1.18 0-2.377-.279-3.494-.868-3.664-1.934-5.066-6.47-3.133-10.134l51.987-99.81c1.933-3.663 6.471-5.065 10.133-3.134 3.664 1.934 5.066 6.47 3.133 10.134l-51.987 99.81c-1.343 2.547-3.946 4.002-6.639 4.002z" fill="#678d98"/></g><g><g><path d="m336.055 91.99c-4.142 0-7.5-3.357-7.5-7.5v-40.778c0-4.143 3.358-7.5 7.5-7.5s7.5 3.357 7.5 7.5v40.778c0 4.143-3.358 7.5-7.5 7.5z" fill="#8379c1"/></g></g><g><g><path d="m177.09 91.99c-4.142 0-7.5-3.357-7.5-7.5v-40.778c0-4.143 3.358-7.5 7.5-7.5s7.5 3.357 7.5 7.5v40.778c0 4.143-3.358 7.5-7.5 7.5z" fill="#8379c1"/></g></g><path d="m370.268 129.486h-68.425v-14.783c0-18.895 15.317-34.212 34.212-34.212 18.895 0 34.212 15.317 34.212 34.212v14.783z" fill="#8379c1"/><path d="m336.055 80.49c-3.172 0-6.238.441-9.153 1.248 14.449 4.004 25.06 17.241 25.06 32.964v14.783h18.305v-14.783c.001-18.894-15.317-34.212-34.212-34.212z" fill="#6e61b6"/><path d="m211.302 129.486h-68.425v-14.783c0-18.895 15.317-34.212 34.212-34.212 18.895 0 34.212 15.317 34.212 34.212v14.783z" fill="#8379c1"/><path d="m177.09 80.49c-2.926 0-5.765.369-8.475 1.06 14.795 3.771 25.737 17.183 25.737 33.153v14.783h16.951v-14.783c-.001-18.895-15.318-34.213-34.213-34.213z" fill="#6e61b6"/><path d="m312.542 380.885-56.416 6.342-55.38-6.342v-56.492l56.959-7 54.837 7z" fill="#8ebac5"/><path d="m288.886 321.393v59.492h23.656v-56.492z" fill="#7ca1b1"/><path d="m365.939 324.393h-219.625c-17.643 0-31.946-14.302-31.946-31.946v-147.207c0-17.643 14.303-31.946 31.946-31.946h48.037l65.189 4 58.017-4h48.381c17.643 0 31.946 14.303 31.946 31.946v147.207c0 17.643-14.302 31.946-31.945 31.946z" fill="#a8d3d8"/><path d="m365.939 113.295h-23.364c17.643 0 31.946 14.302 31.946 31.946v147.207c0 17.643-14.303 31.946-31.946 31.946h23.364c17.643 0 31.946-14.302 31.946-31.946v-147.208c-.001-17.643-14.303-31.945-31.946-31.945z" fill="#8ebac5"/><path d="m358.376 324.391h-204.5c0-11.46 3.45-22.11 9.37-30.98 2.04-3.08 4.39-5.94 7-8.55 1.11-1.11 2.26-2.17 3.46-3.17 7.74-6.55 17.28-11.02 27.77-12.59 2.71-.4 5.48-.61 8.3-.61h92.7c2.25 0 4.46.13 6.64.39 9.89 1.17 18.99 4.93 26.61 10.57 4.24 3.14 8.02 6.87 11.21 11.06 7.18 9.4 11.44 21.14 11.44 33.88z" fill="#ffd15b"/><path d="m358.376 324.391h-25.35c0-.55-.01-1.09-.03-1.63-.24-8.55-2.4-16.61-6.07-23.78-2.99-5.85-6.98-11.1-11.74-15.53-6.52-6.06-14.48-10.59-23.32-12.99-4.7-1.29-9.64-1.97-14.74-1.97h25.35c1.62.073 2.455-.092 6.64.4 9.89 1.16 18.99 4.92 26.61 10.56.596.845 3.212 1.244 11.21 11.06 7.18 9.4 11.44 21.14 11.44 33.88z" fill="#feb137"/><g><path d="m428.352 489.761h-345.451l10.335-73.091c4.231-20.822 22.54-35.785 43.788-35.785h237.721c21.412 0 39.814 15.19 43.873 36.213z" fill="#a8d3d8"/></g><path d="m418.617 417.099c-4.059-21.024-22.461-36.213-43.873-36.213h-22.679c21.412 0 39.814 15.189 43.873 36.213l9.735 72.663h22.679z" fill="#8ebac5"/><path d="m287.613 143.24h-63.317c-16.538 0-29.945-13.407-29.945-29.945h123.206c.001 16.538-13.406 29.945-29.944 29.945z" fill="#8379c1"/><path d="m293.698 113.295c0 16.538-13.407 29.945-29.945 29.945h23.86c16.538 0 29.945-13.407 29.945-29.945z" fill="#6e61b6"/><g fill="#8379c1"><path d="m357.449 230.081-7.417 7.417c-2.652 2.652-6.951 2.652-9.603 0l-38.694-38.693c-2.652-2.652-2.652-6.951 0-9.603l7.417-7.417c2.652-2.652 6.951-2.652 9.603 0l38.693 38.693c2.653 2.652 2.653 6.951.001 9.603z"/><path d="m350.032 181.784 7.417 7.417c2.652 2.652 2.652 6.951 0 9.603l-38.693 38.693c-2.652 2.652-6.951 2.652-9.603 0l-7.417-7.417c-2.652-2.652-2.652-6.951 0-9.603l38.694-38.693c2.651-2.651 6.951-2.651 9.602 0z"/></g><g fill="#8379c1"><path d="m208.287 230.081-7.417 7.417c-2.652 2.652-6.951 2.652-9.603 0l-38.693-38.693c-2.652-2.652-2.652-6.951 0-9.603l7.417-7.417c2.652-2.652 6.951-2.652 9.603 0l38.693 38.693c2.652 2.652 2.652 6.951 0 9.603z"/><path d="m200.871 181.784 7.417 7.417c2.652 2.652 2.652 6.951 0 9.603l-38.693 38.693c-2.652 2.652-6.951 2.652-9.603 0l-7.417-7.417c-2.652-2.652-2.652-6.951 0-9.603l38.693-38.693c2.651-2.651 6.951-2.651 9.603 0z"/></g><circle cx="50.047" cy="344.059" fill="#e0edf1" r="21.274"/><circle cx="461.607" cy="344.059" fill="#e0edf1" r="21.274"/><path d="m349.656 489.761h-183.903v-46.476c0-13.673 11.084-24.757 24.757-24.757h134.39c13.673 0 24.757 11.084 24.757 24.757v46.476z" fill="#8379c1"/><path d="m324.9 418.529h-22.757c13.673 0 24.757 11.084 24.757 24.757v46.476h22.757v-46.476c-.001-13.673-11.084-24.757-24.757-24.757z" fill="#6e61b6"/><path d="m470.931 482.262h-63.568-366.041c-4.142 0-7.5 3.357-7.5 7.5s3.358 7.5 7.5 7.5h366.042 63.568c4.142 0 7.5-3.357 7.5-7.5s-3.359-7.5-7.501-7.5z" fill="#678d98"/><g><g><path d="m346.936 290.511-14.64 33.88h-16.29l-15.21-36.47-15.34 36.47h-15.92l-14.08-35.75-14.6 35.75h-16.21l-14.69-35.74-13.97 35.74h-16.52l-16.22-30.98c2.04-3.08 4.39-5.94 7-8.55 1.11-1.11 2.26-2.17 3.46-3.17.48.5.91 1.09 1.25 1.74l11.98 22.89 14.54-37.22c2.71-.4 5.48-.61 8.3-.61h8.11l14.85 36.12 14.74-36.12h16.16l14.05 35.67 15.01-35.67h9.78c2.25 0 4.46.13 6.64.39l15.13 36.31 10.31-23.85c2.026-4.194 9.26 5.786 12.38 9.17z" fill="#8379c1"/></g></g><g><g><g><path d="m309.116 268.891 6.07 14.56c-6.52-6.06-14.48-10.59-23.32-12.99l.83-1.97h9.78c1.621.073 2.456-.092 6.64.4z" fill="#6e61b6"/></g><g><path d="m346.936 290.511-13.94 32.25c-.24-8.55-2.4-16.61-6.07-23.78l7.63-17.64c.35-3.046 4.671-.494 12.38 9.17z" fill="#6e61b6"/></g></g></g><g><path d="m243.652 83.99c-1.919 0-3.839-.732-5.303-2.196-2.929-2.93-2.929-7.678 0-10.607l17.324-17.323h-12.043c-3.033 0-5.768-1.827-6.929-4.63s-.519-6.028 1.626-8.174l24.471-24.472c2.929-2.928 7.678-2.928 10.606 0 2.929 2.93 2.929 7.678 0 10.607l-11.668 11.668h12.043c3.034 0 5.768 1.827 6.929 4.63s.519 6.028-1.626 8.174l-30.127 30.127c-1.464 1.464-3.384 2.196-5.303 2.196z" fill="#ffd15b"/></g></g></svg>