<svg viewBox="0 0 216 94.5" xmlns="http://www.w3.org/2000/svg"><path d="m46 79.24h91c.51 0 1.02-.06 1.5-.16.48.1.99.16 1.5.16h52c3.87 0 7-3.13 7-7s-3.13-7-7-7h-6c-3.87 0-7-3.13-7-7s3.13-7 7-7h19c3.87 0 7-3.13 7-7s-3.13-7-7-7h-22c3.87 0 7-3.13 7-7s-3.13-7-7-7h-64c3.87 0 7-3.13 7-7s-3.13-7-7-7h-57c-3.87 0-7 3.13-7 7s3.13 7 7 7h-40c-3.87 0-7 3.13-7 7s3.13 7 7 7h25c3.87 0 7 3.13 7 7s-3.13 7-7 7h-40c-3.87 0-7 3.13-7 7s3.13 7 7 7h39c-3.87 0-7 3.13-7 7s3.13 7 7 7zm163 0c3.87 0 7-3.13 7-7s-3.13-7-7-7-7 3.13-7 7 3.13 7 7 7z" fill="#29bb89" fill-rule="evenodd" opacity=".08"/><path d="m143.71 76.37c1.39-1.7 2.64-3.48 3.75-5.33 2.44-4.06 4.2-8.41 5.27-12.9 1.09-4.54 1.48-9.22 1.16-13.87-.27-4.05-1.08-8.08-2.43-11.97-1.33-3.86-3.2-7.58-5.59-11.04-1.43-2.07-3.04-4.05-4.84-5.91-2.65-2.74-5.55-5.08-8.63-7.02-3.31-2.09-6.84-3.72-10.48-4.88-4.56-1.46-9.3-2.19-14.04-2.2-3.69 0-7.38.43-10.98 1.31-4.06.99-8.01 2.54-11.72 4.66-3.27 1.86-6.36 4.15-9.19 6.89-3.56 3.43-6.43 7.3-8.64 11.44-2.16 4.05-3.66 8.37-4.51 12.79-.88 4.55-1.07 9.22-.56 13.83.66 5.97 2.49 11.85 5.49 17.26 1.92 3.46 4.32 6.73 7.2 9.72 4.58 4.74 9.92 8.29 15.64 10.64 6.96 2.86 14.48 3.95 21.86 3.26 6.2-.58 12.3-2.41 17.9-5.51" fill="none" stroke="#29bb89" stroke-linecap="round" stroke-linejoin="round" stroke-width="2.5"/><path d="m133.7 85.62c2.91-1.87 5.49-4.2 7.17-6.09z" fill="#fff" fill-rule="evenodd"/><path d="m133.7 85.62c2.91-1.87 5.49-4.2 7.17-6.09" fill="none" stroke="#2994a8" stroke-linecap="round" stroke-width="2.5"/><path d="m150 49.86h-.86c-25.25 0-45.93-19.69-47.66-44.62-20.1 3.17-35.48 20.65-35.48 41.74 0 23.34 18.82 42.26 42.05 42.26s40.48-17.39 41.95-39.38z" fill="#29bb89" opacity=".18"/><path d="m92.02 45.61c-1.22-1.13-3.12-1.04-4.24.19-1.12 1.24-1.03 3.15.19 4.28l14.12 13.04c1.71 1.58 4.37 1.46 5.93-.27.05-.05.09-.1.13-.15l20.15-24.5c1.06-1.29.88-3.2-.39-4.27s-3.17-.89-4.23.39l-18.94 23.03-12.73-11.75z" fill="#fff" fill-rule="evenodd" stroke="#29bb89" stroke-linecap="round" stroke-width="2.5"/><path d="m93.82 9.65c-1.95.73-3.85 1.62-5.7 2.67-2.86 1.63-5.56 3.63-8.04 6.02-1.01.98-1.97 2-2.85 3.06m-2.74 3.68c-.71 1.07-1.36 2.16-1.95 3.28-.44.83-.85 1.66-1.22 2.51" fill="#fff" fill-rule="evenodd"/><path d="m94.26 10.82c.65-.24.97-.96.73-1.61s-.96-.97-1.61-.73zm-6.13 1.5.62 1.09zm-8.04 6.02-.87-.9zm-3.81 2.26c-.44.53-.38 1.32.15 1.76s1.32.38 1.76-.15zm-.75 5.17c.38-.58.22-1.35-.35-1.73-.58-.38-1.35-.22-1.73.35 0 0 2.08 1.38 2.08 1.38zm-3 2.59 1.1.59zm-2.36 2c-.28.63 0 1.37.63 1.65s1.37 0 1.65-.63c0 0-2.28-1.02-2.28-1.02zm23.22-21.88c-2.01.75-3.98 1.67-5.88 2.75l1.24 2.17c1.78-1.01 3.63-1.88 5.52-2.58zm-5.88 2.75c-2.95 1.68-5.74 3.75-8.29 6.21l1.74 1.8c2.4-2.32 5.02-4.26 7.79-5.84 0 0-1.24-2.17-1.24-2.17zm-8.29 6.22c-1.05 1.01-2.03 2.06-2.94 3.15l1.91 1.61c.86-1.02 1.78-2.01 2.77-2.96zm-5.78 6.94c-.73 1.1-1.4 2.23-2.01 3.38l2.21 1.17c.58-1.08 1.21-2.14 1.89-3.18l-2.08-1.38zm-2.01 3.38c-.45.85-.87 1.72-1.26 2.59l2.28 1.02c.37-.82.76-1.63 1.19-2.43l-2.21-1.17z" fill="#29bb89"/></svg>